<svg xmlns="http://www.w3.org/2000/svg" viewBox="0 0 246 227.12"><defs><style>.cls-1{fill:#c1272d;}.cls-2{fill:#fff;}</style></defs><title>Asset 1</title><g id="Layer_2" data-name="Layer 2"><g id="Layer_1-2" data-name="Layer 1"><polygon class="cls-1" points="35 227.12 0 227.12 211 178.12 246 178.12 35 227.12"/><path class="cls-2" d="M94.44,77.08a65.35,65.35,0,0,0-13,16.4C80,96,78.68,98.48,77.27,101a9.52,9.52,0,0,1-12.76,4,9.3,9.3,0,0,1-4.29-12.45c8.94-19,22-34,41.32-43a27.55,27.55,0,0,1,15-2.15c2.91.29,5.83.62,8.74.62a12.65,12.65,0,0,1,9.46,4.17,113.68,113.68,0,0,1,9.42,10.59,83.74,83.74,0,0,0,25.54,23,29.83,29.83,0,0,1,3.44,2.35,9.27,9.27,0,0,1,2.27,12.65c-2.78,4.32-8.16,5.9-12.57,3.24-10.09-6.07-20-12.45-27.54-21.75-.3-.37-.56-.77-1.17-1.59-1,5-2,9.34-2.89,13.71-1.5,7.14-3,14.29-4.54,21.42a2.49,2.49,0,0,0,.84,2.7c4.28,4.1,8.46,8.28,12.76,12.35a45.82,45.82,0,0,1,13.42,23.32c2.71,11.5,5.64,22.94,8.45,34.42,1.43,5.84-1,11.22-6.07,13.67A11.14,11.14,0,0,1,142,198.9a13.94,13.94,0,0,1-2.13-4.69q-4.27-16.87-8.35-33.8a24.83,24.83,0,0,0-7.27-12.85c-4.65-4.29-9.11-8.78-14-13.5-.46,2.85-.93,5.38-1.27,7.93a58,58,0,0,1-5,17.15q-8.71,18.6-17.53,37.14c-2.61,5.5-8.09,8.25-13.3,6.85-7.45-2-11-9.33-7.74-16.38,3.35-7.33,6.85-14.6,10.28-21.89,1.49-3.14,2.79-6.38,4.49-9.41,4.17-7.42,5.92-15.48,7-23.82,2.2-17,4.61-34,6.93-51C94.25,79.62,94.3,78.65,94.44,77.08Z"/><path class="cls-2" d="M121.69,42.3a21.15,21.15,0,1,1,21.08-21.09A21.1,21.1,0,0,1,121.69,42.3Z"/></g></g></svg>