<svg xmlns="http://www.w3.org/2000/svg" viewBox="0 0 26.8 26.8"><defs><style>.cls-1{fill:#fff;}</style></defs><title>search</title><g id="Layer_2" data-name="Layer 2"><g id="layer"><path class="cls-1" d="M19,17.24C24.7,9.87,19.19-1.52,8.14.17-.08,2.69-2.19,11.59,2.33,17.3A10.7,10.7,0,0,0,17.24,19l7.32,7.33a1.1,1.1,0,0,0,1.35.31,1.38,1.38,0,0,0,.87-1.33,1.47,1.47,0,0,0-.42-.77C23.93,22.12,21.48,19.68,19,17.24ZM4.75,16.66c-6.67-8.75,3.12-18.55,11.89-12C23.1,13.42,13.5,23.08,4.75,16.66Z"/></g></g></svg>