<svg xmlns="http://www.w3.org/2000/svg" viewBox="0 0 19.99 20"><defs><style>.cls-1{fill:#063739;}</style></defs><title>discard-dim</title><g id="Layer_2" data-name="Layer 2"><g id="layer"><path class="cls-1" d="M4.37,8.13,5.55,9.32a.41.41,0,0,1,0,.23q0,4.41,0,8.83v.36H18.73V6.88H13.12V1.25H8.94a.51.51,0,0,1-.33-.13C8.3.82,8,.51,7.69.2L7.53,0h5.81a1.4,1.4,0,0,1,1,.43l5.2,5.27a1.37,1.37,0,0,1,.41,1c0,2,0,4,0,5.93V18.6a1.27,1.27,0,0,1-1.4,1.4H5.72a1.24,1.24,0,0,1-1.35-1.32c0-3.45,0-6.9,0-10.35Zm9.38-6.84v5h4.94Z"/><path class="cls-1" d="M7.94,6.52,6.15,8.32,4,6.16,1.82,8.35,0,6.56,2.19,4.41,0,2.24,1.79.44,3.92,2.6,6.11.4,7.89,2.2,5.75,4.34Z"/><path class="cls-1" d="M16.84,12.53v.58H7.5v-.58Z"/><path class="cls-1" d="M7.5,15V14.4h9.36V15Z"/><path class="cls-1" d="M7.5,16.85v-.58h9.34v.58Z"/></g></g></svg>