<svg xmlns="http://www.w3.org/2000/svg" viewBox="0 0 23.78 22.27"><defs><style>.cls-1{fill:#fff;}</style></defs><title>filter-icon</title><g id="Layer_2" data-name="Layer 2"><g id="layer"><path class="cls-1" d="M23.12.1a1.39,1.39,0,0,0-.75-.1H1.45A2.81,2.81,0,0,0,.8.05.86.86,0,0,0,0,.87c0,.53.42.75.9.93a1.87,1.87,0,0,1,.74.53c2.26,2.6,4.49,5.21,6.72,7.83a1.32,1.32,0,0,0,.68.46,1.86,1.86,0,0,0-.18.9c0,3.86,0,6.29,0,10.15,0,.17,0,.6,0,.6l6-4.05s0-4.07,0-6.82a1.73,1.73,0,0,0-.17-.79,1.27,1.27,0,0,0,.67-.45c2.19-2.58,4.4-5.13,6.59-7.7a2.15,2.15,0,0,1,1.11-.8,1,1,0,0,0,.62-.79C23.77.6,23.4.29,23.12.1Z"/></g></g></svg>