<svg xmlns="http://www.w3.org/2000/svg" viewBox="0 0 19.88 20"><defs><style>.cls-1{fill:#fff;}</style></defs><title>full-screen-icon</title><g id="Layer_2" data-name="Layer 2"><g id="layer"><path class="cls-1" d="M14.2,1.52V3.21H4.25a1.6,1.6,0,0,0-.58.08.83.83,0,0,0-.49.89v9.71c0,.1,0,.2,0,.34H1.49V3.71c0-.09.06-.17.08-.25A2.47,2.47,0,0,1,3.4,1.61l.28-.09Z"/><path class="cls-1" d="M5.75,18.45V16.77H7.61c2.7,0,5.4,0,8.1,0,.77,0,1-.26,1-1V5.79h1.67v10a2.5,2.5,0,0,1-2.67,2.66h-10Z"/><path class="cls-1" d="M16.42,1.94H15V0h4.92V4.94H18V3.45L12.48,9,11,7.48,16.47,2Z"/><path class="cls-1" d="M7.49,11l1.43,1.43L3.41,18l0,.08H4.93V20H0V15.08H1.93v1.53Z"/></g></g></svg>