<svg xmlns="http://www.w3.org/2000/svg" viewBox="0 0 18.85 15"><defs><style>.cls-1{fill:#cacaca;}</style></defs><title>home</title><g id="Layer_2" data-name="Layer 2"><g id="layer"><path class="cls-1" d="M9.42,3,2.7,8.57v0a.08.08,0,0,0,0,0v5.61a.75.75,0,0,0,.75.75H7.93V10.51h3V15h4.49a.73.73,0,0,0,.53-.22.77.77,0,0,0,.22-.53V8.64s0-.05,0-.07Z"/><path class="cls-1" d="M18.72,7.31,16.16,5.18V.41a.37.37,0,0,0-.11-.27.36.36,0,0,0-.27-.1H13.54a.36.36,0,0,0-.27.1.36.36,0,0,0-.1.27V2.69L10.31.3A1.46,1.46,0,0,0,8.54.3l-8.41,7A.33.33,0,0,0,0,7.56a.36.36,0,0,0,.08.27l.73.87a.41.41,0,0,0,.24.13.48.48,0,0,0,.28-.08L9.42,2l8.09,6.75a.41.41,0,0,0,.25.08h0A.41.41,0,0,0,18,8.7l.73-.87a.36.36,0,0,0,.08-.27A.33.33,0,0,0,18.72,7.31Z"/></g></g></svg>