<svg xmlns="http://www.w3.org/2000/svg" viewBox="0 0 129.59 30"><defs><style>.cls-1{fill:#fff;}</style></defs><title>logo</title><g id="Layer_2" data-name="Layer 2"><g id="bg"><path class="cls-1" d="M66.74,12.77l-.89-.3h0c-2.58-.94-5.34-1.35-5.34-3.75,0-1.43,1.31-3.11,4.23-3.11,2.4,0,4.38,1,4.8,3,.1.53.27.53.5.53H75a.53.53,0,0,0,.36-.1.51.51,0,0,0,.07-.34C74.86,2.28,69.27,0,64.73,0c-6.74,0-10,4.38-10,8.72,0,6.29,5.45,7.37,9.86,8.89l.16.05c2.8,1,5,1.25,5,3.62,0,.93-.45,3.11-4.55,3.11-2.93,0-4.21-1-4.66-3-.1-.54-.26-.54-.49-.54H55.1a.53.53,0,0,0-.36.1.46.46,0,0,0-.07.34C55.12,26.75,58.82,30,65.18,30c4.77,0,10.34-2.28,10.34-8.72C75.52,15.31,71.06,14.26,66.74,12.77Z"/><path class="cls-1" d="M93.8.47A.58.58,0,0,0,93.16,0H86.29a.57.57,0,0,0-.63.44L76,29.65a.5.5,0,0,0,0,.29.64.64,0,0,0,.33.06h5.51c.37,0,.5-.1.59-.43l1.37-4.5h12l1.36,4.48c.08.31.19.45.59.45h5.51a.74.74,0,0,0,.34-.06.75.75,0,0,0-.05-.29ZM85.37,19.72,89.73,5.34l4.35,14.38Z"/><path class="cls-1" d="M125.84,13.11A8,8,0,0,0,119.58,0h-13c-.34,0-.43.1-.43.43V29.57c0,.33.09.43.43.43h13.66a9.39,9.39,0,0,0,5.65-16.89Zm-7-7.77a3,3,0,0,1,3,3.16,3.72,3.72,0,0,1-1.29,2.71h-8.69V5.34h7Zm.66,19.31h-7.66V16.1h7.66a4.28,4.28,0,0,1,0,8.55Z"/><path class="cls-1" d="M28.94,1.93a10.57,10.57,0,0,1,10.49,9.51,9.16,9.16,0,0,1,1.14-.07l.76,0A12.44,12.44,0,0,0,16.5,12.47a12.34,12.34,0,0,0,.3,2.7,4.45,4.45,0,0,0,1.62-2.08c0-.23,0-.43,0-.62A10.55,10.55,0,0,1,28.94,1.93Z"/><path class="cls-1" d="M28.94,23a10.55,10.55,0,0,1-9.13-5.29,7.39,7.39,0,0,1-1.53,1.15,12.44,12.44,0,0,0,22.81-3.71l-.52,0a6.24,6.24,0,0,0-1.48.18A10.57,10.57,0,0,1,28.94,23Z"/><path class="cls-1" d="M11,12.57A4,4,0,0,0,12,15a6.92,6.92,0,0,1,.19,12.22h3.07A8.82,8.82,0,0,0,11,12.57Z"/><path class="cls-1" d="M0,21.13A8.84,8.84,0,0,0,8.83,30H36.32a9.33,9.33,0,0,1-2.53-1.84l-25-.06A6.93,6.93,0,0,1,7.46,14.34a7.45,7.45,0,0,1-.3-1.88A8.83,8.83,0,0,0,0,21.13Z"/><path class="cls-1" d="M49.4,21.13a8.83,8.83,0,1,0-17.66,0c0,.17,0,.35,0,.55a10.74,10.74,0,0,0,1.89-.78,6.92,6.92,0,1,1,.91,3.68,12.41,12.41,0,0,1-1.78.7,8.84,8.84,0,0,0,1.42,2,1.85,1.85,0,0,0,.14.14l.16.16h0l.21.19A9.16,9.16,0,0,0,40.57,30,8.84,8.84,0,0,0,49.4,21.13Z"/><path class="cls-1" d="M16.35,8a14.2,14.2,0,0,1,.77-1.73,6.39,6.39,0,0,0-2.44-.48,6.54,6.54,0,0,0-.25,13.07,6.35,6.35,0,0,0-1.35-2.18,4.64,4.64,0,0,1,1.6-9A4.58,4.58,0,0,1,16.35,8Z"/><path class="cls-1" d="M17.19,16.19A9.3,9.3,0,0,1,18,17.9a6.56,6.56,0,0,0,3.19-5.6,6.48,6.48,0,0,0-1.07-3.58,12,12,0,0,0-.83,3.47h0v0s0,0,0,.08A4.62,4.62,0,0,1,17.19,16.19Z"/></g></g></svg>