<?xml version="1.0" encoding="utf-8"?>
<!-- Generator: Adobe Illustrator 23.0.1, SVG Export Plug-In . SVG Version: 6.00 Build 0)  -->
<svg version="1.1" id="Layer_1" xmlns="http://www.w3.org/2000/svg" xmlns:xlink="http://www.w3.org/1999/xlink" x="0px" y="0px"
	 viewBox="0 0 19.9 20" style="enable-background:new 0 0 19.9 20;" xml:space="preserve">
<style type="text/css">
	.st0{fill:#FFFFFF;}
</style>
<g>
	<path class="st0" d="M14.2,1.5v1.7H4.3c-0.2,0-0.4,0-0.6,0.1C3.3,3.4,3.1,3.8,3.2,4.2v9.7c0,0.1,0,0.2,0,0.3H1.5V3.7
		c0-0.1,0.1-0.2,0.1-0.3c0.2-0.9,0.9-1.6,1.8-1.9l0.3-0.1H14.2z"/>
	<path class="st0" d="M5.8,18.5v-1.7h1.9c2.7,0,5.4,0,8.1,0c0.8,0,1-0.3,1-1v-10h1.7v10c0.1,1.4-1,2.6-2.3,2.7c-0.1,0-0.2,0-0.3,0
		H5.8L5.8,18.5z"/>
	<path class="st0" d="M14.5,7.1h1.4V9H11V4.1h1.9v1.5L18.4,0l1.5,1.5L14.5,7.1L14.5,7.1z"/>
	<path class="st0" d="M1.4,20L0,18.6L5.5,13v-0.1H4V11h4.9v4.9H7v-1.5L1.4,20z"/>
</g>
</svg>
