<svg xmlns="http://www.w3.org/2000/svg" viewBox="0 0 22.31 22"><defs><style>.cls-1{fill:#0c6d72;}</style></defs><title>reset</title><g id="Layer_2" data-name="Layer 2"><g id="bg"><path class="cls-1" d="M5.47,6.28c.89,0,1.65,0,2.4,0S9,6.57,9,7.4c0,.17,0,.33,0,.49C9,9,8.77,9.27,7.63,9.27H1.27C.25,9.27,0,9,0,8V1.58C0,.53.23.31,1.25.3c.26,0,.51,0,.76,0,.67,0,1,.31,1,1s0,1.42,0,2.3c.28-.22.46-.33.61-.47A10.66,10.66,0,0,1,15.06.75a10.49,10.49,0,0,1,7.19,9.31A11,11,0,0,1,13.53,22a1.72,1.72,0,0,1-2.09-1.25,1.79,1.79,0,0,1,1.18-2.14,13.15,13.15,0,0,0,2.42-1,7.21,7.21,0,0,0,3.67-7.34,7.11,7.11,0,0,0-4.84-6.19A7.17,7.17,0,0,0,6,5.69C5.85,5.83,5.72,6,5.47,6.28Z"/></g></g></svg>