<svg xmlns="http://www.w3.org/2000/svg" viewBox="0 0 21.36 20"><defs><style>.cls-1{fill:#fff;}</style></defs><title>search-filter</title><g id="Layer_2" data-name="Layer 2"><g id="bg"><path class="cls-1" d="M20.76.09A1.21,1.21,0,0,0,20.09,0H1.3A2.74,2.74,0,0,0,.72,0,.78.78,0,0,0,0,.78c0,.48.37.68.81.84a1.76,1.76,0,0,1,.67.48q3,3.49,6,7a1.17,1.17,0,0,0,.62.41,1.57,1.57,0,0,0-.16.82C8,13.81,8,16,8,19.46,8,19.62,8,20,8,20l5.42-3.64s0-3.66,0-6.13a1.52,1.52,0,0,0-.15-.7,1.15,1.15,0,0,0,.61-.41c2-2.31,3.94-4.61,5.91-6.92a2,2,0,0,1,1-.71,1,1,0,0,0,.56-.71C21.35.54,21,.26,20.76.09Z"/></g></g></svg>