<svg xmlns="http://www.w3.org/2000/svg" viewBox="0 0 83 22"><defs><style>.cls-1{fill:#102023;}.cls-2{fill:#0c6d72;}.cls-3{fill:#063739;}</style></defs><title>zoom</title><g id="Layer_2" data-name="Layer 2"><g id="bg"><path class="cls-1" d="M81.5,12.5H1.5a1.5,1.5,0,0,1,0-3h80a1.5,1.5,0,0,1,0,3Z"/><path class="cls-2" d="M46.14,14.14a8.74,8.74,0,1,0-1.5,1.5l.27.25,5.76,5.76a.88.88,0,0,0,1.1.25,1.14,1.14,0,0,0,.72-1.09,1.2,1.2,0,0,0-.35-.63q-2.87-2.89-5.75-5.77ZM32.59,8.75a6.66,6.66,0,1,1,6.66,6.64A6.66,6.66,0,0,1,32.59,8.75Z"/><path class="cls-3" d="M32.59,8.75a6.66,6.66,0,1,1,6.66,6.64A6.66,6.66,0,0,1,32.59,8.75Z"/></g></g></svg>